<?xml version="1.0" encoding="utf-8"?>
<!-- Generator: Adobe Illustrator 15.1.0, SVG Export Plug-In . SVG Version: 6.00 Build 0)  -->
<!DOCTYPE svg PUBLIC "-//W3C//DTD SVG 1.1 Tiny//EN" "http://www.w3.org/Graphics/SVG/1.1/DTD/svg11-tiny.dtd">
<svg version="1.1" baseProfile="tiny" id="Layer_1" xmlns="http://www.w3.org/2000/svg" xmlns:xlink="http://www.w3.org/1999/xlink"
	 x="0px" y="0px" width="612px" height="792px" viewBox="0 0 612 792" overflow="inherit" xml:space="preserve">
<path fill="none" d="M224.222,160.955c-1.796-0.273-3.576-0.412-5.29-0.412c-7.973,0-14.702,2.885-19.459,8.342
	c-5.207,5.974-7.433,14.413-6.299,23.827c-7.157,7.603-14.979,15.401-23.223,23.45l0.674,0.69
	c8.275-8.078,16.125-15.903,23.306-23.532c-1.133-9.415,1.092-17.854,6.299-23.827c4.757-5.457,11.486-8.342,19.459-8.342
	c1.714,0,3.494,0.139,5.29,0.412l0.447,0.068l-0.048-0.5L224.222,160.955z"/>
<path fill="none" d="M206.52,286.783c0.052,0.042,0.277,0.223,0.626,0.489l-33.463-32.369c-0.021,0.021-0.042,0.042-0.063,0.063
	l32.807,31.733L206.52,286.783z"/>
<path fill="none" d="M162.737,164.817c-0.264-0.056-6.558-1.363-14.626-1.363c-4.763,0-9.151,0.461-13.043,1.37
	c-12.1,2.828-22.475,11.487-26.995,18.335l-0.812,1.222l0.797,0.549l0.772-1.163c4.52-6.849,14.896-15.508,26.995-18.335
	c3.892-0.909,8.28-1.37,13.043-1.37c8.068,0,14.362,1.307,14.626,1.363l3.412,0.719l0.746-0.292L162.737,164.817z"/>
<path d="M232.545,212.017c-1.585,0.714-3.285,1.31-5.141,1.746c-1.195,0.28-2.934,0.422-5.167,0.422
	c-2.787,0-5.641-0.215-6.932-0.326c-2.095,2.062-10.547,10.384-20.797,20.49l31.568,31.748c0,0,5.275,6.704,6.05,8.18
	c2.403,4.575,2.888,7.582,2.888,7.582l19.504-45.96C254.519,235.898,234.209,227.25,232.545,212.017z"/>
<path d="M210.11,289.41l-36.491-33.564l-41.679,40.819c0,0,7.226,4.144,12.047,4.144c3.822,0,7.573-0.709,11.255-2.123l4.778-2.02
	l3.822-1.378c5.31-1.912,10.157-2.869,14.547-2.869c4.459,0,8.282,0.569,11.468,1.699l4.99,1.911l2.973,1.169
	c6.372,2.405,11.43,3.61,15.184,3.61c3.445,0,6.416-0.772,9.81-2.76c1.549-0.908,4.998-3.525,4.998-3.525s-1.598,0.37-3.374,0.37
	C216.556,294.893,210.11,289.41,210.11,289.41z"/>
<path d="M201.438,137.15c8.177-8.457,12.265-18.316,12.265-29.57c0-1.203-0.071-2.937-0.213-5.203
	c-1.486,0.212-2.585,0.355-3.292,0.424c-9.981,1.487-18.777,6.408-26.385,14.758c-7.61,8.354-11.414,17.273-11.414,26.757
	c0,1.207,0.141,3.045,0.424,5.522C183.723,149.838,193.263,145.61,201.438,137.15z"/>
<path d="M125.638,203.017c-7.953,0.882-7.176,9.532-7.139,9.9l0.071,0.708l-0.503,0.507l-12.321,13.109L91.424,213.24l12.886,37.12
	l8.25,20.608l43.025-40.887l-21.275-22.836C131.784,205.32,127.732,202.782,125.638,203.017z"/>
<path d="M108.057,184.931l-0.797-0.549l0.812-1.222c4.52-6.849,14.896-15.508,26.995-18.335c3.892-0.909,8.28-1.37,13.043-1.37
	c8.068,0,14.362,1.307,14.626,1.363l4.915,1.036l-0.746,0.292l1.503,0.317l-24.13,9.432c-3.941,1.773-5.735,5.828-6.333,7.522
	l32.004,32.746c8.245-8.049,16.066-15.847,23.223-23.45c-1.133-9.415,1.092-17.854,6.299-23.827
	c4.757-5.457,11.486-8.342,19.459-8.342c1.714,0,3.494,0.139,5.29,0.412l1.156,0.176l0.048,0.5l0.709,0.108l0.111,1.165
	c0.301,3.152-2.2,5.332-4.848,7.64c-3.631,3.165-7.746,6.751-6.705,13.833c0.293,1.995,1.665,4.676,3.812,6.573
	c1.022,0.749,2.183,1.319,3.47,1.57c1.011,0.197,1.985,0.297,2.896,0.297c5.146,0,8.016-3.13,11.054-6.444
	c1.466-1.599,2.966-3.226,4.731-4.443c3.521-4.683,8.134-9.048,13.862-13.09c-10.264-12.96-23.889-19.443-40.878-19.443
	c-7.079,0-13.627,1.099-19.643,3.291l-3.61,1.382l-4.99,1.911c-3.257,1.204-6.23,1.803-8.919,1.803
	c-2.054,0-4.743-0.671-8.069-2.015l-3.823-1.595l-3.61-1.486c-5.309-2.192-10.974-3.291-16.988-3.291
	c-16.07,0-29.024,5.436-38.862,16.31c-8.282,9.152-12.375,31.732-12.375,31.732l5.085-4.085l0.486-0.075
	c2.734-0.418,6.165-1.287,6.94-1.958c1.54-1.337,3.506-5.021,3.243-5.993l-0.488-0.336L108.057,184.931z"/>
<path d="M166.569,217.161l-32.732-33.49l0.196-0.808c0.073-0.303,1.874-7.442,8.328-10.342l14.279-5.583
	c-2.357-0.261-5.311-0.483-8.529-0.483c-4.534,0-8.692,0.434-12.361,1.291c-10.785,2.521-20.086,9.976-24.565,16.187
	c0.169,0.356,0.289,0.789,0.318,1.312c0.171,3.059-3.029,7.261-4.274,8.342c-1.626,1.411-6.223,2.29-7.962,2.58l-9.371,9.37
	l15.58,15.58l9.228-9.229c-0.194-4.292,1.591-11.545,9.847-12.46c0.187-0.021,0.379-0.031,0.576-0.031
	c4.208,0,10.408,4.961,11.101,5.527l0.149,0.14l20.093,21.566L166.569,217.161z"/>
<path d="M213.441,210.131l0.7,0.07c0.038,0.004,3.812,0.375,7.339,0.375c2.495,0,3.814-0.187,4.481-0.343
	c11.498-2.698,17.032-11.107,17.31-26.396c-1.866,0.998-3.466,2.742-5.135,4.564c-3.187,3.477-6.799,7.417-13.265,7.417
	c-1.103,0-2.271-0.119-3.471-0.353c-6.165-1.205-9.87-7.431-10.432-11.26c-1.28-8.703,3.911-13.228,7.702-16.531
	c1.85-1.612,3.16-2.801,3.641-3.943c-1.147-0.125-2.279-0.188-3.379-0.188c-7.081,0-13.027,2.529-17.198,7.313
	c-4.761,5.461-6.713,13.332-5.497,22.162l0.098,0.709l-0.49,0.522c-11.352,12.096-24.948,25.222-38.096,37.915
	c-8.326,8.038-46.84,45.724-46.84,45.724s-1.562,8.359,2.184,12.554s7.306,6.436,12.503,5.172s86.854-84.506,87.345-84.989
	L213.441,210.131z M128.232,282.506l-6.307,3.935l-3.94-3.167l2.743-4.961l4.954-4.856l4.943-0.025l1.039,3.665L128.232,282.506z"/>
<path d="M192.123,236.985l-15.978,16.23l34.971,33.147c0,0,6.016,4.922,12.564,4.922c1.853,0,3.354-0.496,4.59-1.516
	c1.692-1.26,2.555-2.827,2.883-4.809c0.758-4.572-6.635-15.469-6.635-15.469L192.123,236.985z"/>
<path fill="#FFFFFF" d="M151.667,364.333"/>
<path d="M283.592,469.587"/>
</svg>
