<?xml version="1.0" encoding="iso-8859-1"?>
<!-- Generator: Adobe Illustrator 20.1.0, SVG Export Plug-In . SVG Version: 6.00 Build 0)  -->
<svg version="1.1" id="Layer_1" xmlns="http://www.w3.org/2000/svg" xmlns:xlink="http://www.w3.org/1999/xlink" x="0px" y="0px"
	 viewBox="0 0 79.076 94.084" style="enable-background:new 0 0 79.076 94.084;" xml:space="preserve">
<path style="fill:none;" d="M62.691,29.122c-0.807-0.123-1.607-0.185-2.378-0.185c-3.583,0-6.608,1.297-8.746,3.749
	c-2.34,2.685-3.341,6.478-2.831,10.709c-3.217,3.417-6.732,6.922-10.437,10.539l0.303,0.31c3.719-3.631,7.247-7.147,10.475-10.576
	c-0.509-4.231,0.491-8.024,2.831-10.709c2.138-2.453,5.162-3.749,8.746-3.749c0.77,0,1.57,0.062,2.378,0.185l0.201,0.031
	l-0.022-0.225L62.691,29.122z"/>
<path style="fill:none;" d="M54.735,85.674c0.023,0.019,0.125,0.1,0.281,0.22l-15.04-14.548c-0.01,0.009-0.019,0.019-0.029,0.028
	l14.745,14.262L54.735,85.674z"/>
<path style="fill:none;" d="M35.058,30.858c-0.119-0.025-2.947-0.612-6.574-0.612c-2.141,0-4.113,0.207-5.862,0.616
	c-5.438,1.271-10.101,5.163-12.133,8.241l-0.365,0.549l0.358,0.247l0.347-0.523c2.031-3.078,6.695-6.97,12.133-8.241
	c1.749-0.409,3.722-0.616,5.862-0.616c3.626,0,6.455,0.587,6.574,0.612l1.533,0.323l0.335-0.131L35.058,30.858z"/>
<g>
	<path style="fill:#454545;" d="M66.432,52.071c-0.713,0.321-1.476,0.589-2.31,0.785c-0.537,0.126-1.318,0.19-2.322,0.19
		c-1.253,0-2.535-0.097-3.115-0.146c-0.942,0.927-4.74,4.667-9.347,9.209l14.188,14.269c0,0,2.371,3.013,2.719,3.676
		c1.08,2.056,1.298,3.408,1.298,3.408l8.766-20.657C76.308,62.804,67.18,58.918,66.432,52.071z"/>
	<path style="fill:#454545;" d="M56.349,86.855l-16.4-15.085L21.216,90.116c0,0,3.248,1.862,5.415,1.862
		c1.718,0,3.404-0.319,5.059-0.954l2.147-0.908l1.718-0.619c2.386-0.859,4.565-1.29,6.538-1.29c2.004,0,3.722,0.256,5.154,0.764
		l2.243,0.859l1.336,0.525c2.864,1.081,5.137,1.623,6.824,1.623c1.548,0,2.884-0.347,4.409-1.241
		c0.696-0.408,2.246-1.584,2.246-1.584s-0.718,0.166-1.516,0.166C59.246,89.319,56.349,86.855,56.349,86.855z"/>
	<path style="fill:#454545;" d="M52.452,18.423c3.675-3.801,5.512-8.232,5.512-13.29c0-0.541-0.032-1.32-0.096-2.338
		c-0.668,0.095-1.162,0.16-1.48,0.191c-4.486,0.668-8.439,2.88-11.859,6.633c-3.42,3.755-5.13,7.763-5.13,12.026
		c0,0.542,0.063,1.369,0.191,2.482C44.489,24.126,48.777,22.225,52.452,18.423z"/>
	<path style="fill:#454545;" d="M18.384,48.026c-3.574,0.396-3.225,4.284-3.208,4.45l0.032,0.318l-0.226,0.228l-5.537,5.892
		l-6.437-6.293l5.791,16.683l3.708,9.262L31.844,60.19l-9.562-10.263C21.146,49.061,19.325,47.921,18.384,48.026z"/>
	<path style="fill:#454545;" d="M10.482,39.898l-0.358-0.247l0.365-0.549c2.031-3.078,6.695-6.97,12.133-8.241
		c1.749-0.409,3.722-0.616,5.862-0.616c3.626,0,6.455,0.587,6.574,0.612l2.209,0.466l-0.335,0.131l0.675,0.142l-10.845,4.239
		c-1.771,0.797-2.578,2.619-2.846,3.381l14.384,14.717c3.705-3.617,7.221-7.122,10.437-10.539
		c-0.509-4.231,0.491-8.024,2.831-10.709c2.138-2.453,5.162-3.749,8.746-3.749c0.771,0,1.57,0.062,2.378,0.185l0.52,0.079
		l0.022,0.225l0.319,0.048l0.05,0.523c0.135,1.417-0.989,2.396-2.179,3.434c-1.632,1.422-3.481,3.034-3.014,6.217
		c0.132,0.897,0.748,2.102,1.713,2.954c0.459,0.337,0.981,0.593,1.559,0.706c0.454,0.089,0.892,0.134,1.302,0.134
		c2.313,0,3.603-1.407,4.968-2.896c0.659-0.719,1.333-1.45,2.127-1.997c1.582-2.105,3.656-4.067,6.23-5.883
		c-4.613-5.825-10.737-8.738-18.372-8.738c-3.182,0-6.125,0.494-8.828,1.479l-1.622,0.621l-2.243,0.859
		c-1.464,0.541-2.8,0.81-4.009,0.81c-0.923,0-2.132-0.302-3.627-0.906l-1.718-0.717l-1.623-0.668
		c-2.386-0.985-4.932-1.479-7.635-1.479c-7.222,0-13.045,2.443-17.466,7.33c-3.722,4.113-5.562,14.262-5.562,14.262l2.286-1.836
		l0.219-0.034c1.229-0.188,2.771-0.578,3.119-0.88c0.692-0.601,1.576-2.257,1.458-2.694l-0.219-0.151L10.482,39.898z"/>
</g>
<g>
	<path style="fill:#232323;stroke:#FFFFFF;stroke-width:0.576;stroke-miterlimit:10;" d="M36.78,54.383L22.069,39.331l0.088-0.363
		c0.033-0.136,0.842-3.345,3.743-4.648l6.417-2.509c-1.059-0.117-2.387-0.217-3.833-0.217c-2.038,0-3.907,0.195-5.556,0.58
		c-4.847,1.133-9.027,4.483-11.041,7.275c0.076,0.16,0.13,0.355,0.143,0.59c0.077,1.375-1.361,3.263-1.921,3.749
		c-0.731,0.634-2.797,1.029-3.579,1.16L2.32,49.159l7.002,7.002l4.147-4.148c-0.087-1.929,0.715-5.189,4.426-5.6
		c0.084-0.009,0.171-0.014,0.259-0.014c1.891,0,4.678,2.23,4.989,2.484l0.067,0.063l9.03,9.693L36.78,54.383z"/>
	<path style="fill:#232323;stroke:#FFFFFF;stroke-width:0.576;stroke-miterlimit:10;" d="M57.846,51.224l0.315,0.031
		c0.017,0.002,1.713,0.169,3.299,0.169c1.121,0,1.714-0.084,2.014-0.154c5.168-1.212,7.655-4.992,7.78-11.864
		c-0.839,0.448-1.558,1.232-2.308,2.051c-1.432,1.563-3.056,3.334-5.962,3.334c-0.496,0-1.02-0.053-1.56-0.159
		c-2.771-0.541-4.436-3.34-4.689-5.061c-0.575-3.912,1.758-5.945,3.461-7.43c0.832-0.725,1.42-1.259,1.636-1.772
		c-0.516-0.056-1.024-0.084-1.519-0.084c-3.182,0-5.855,1.137-7.729,3.287c-2.14,2.455-3.017,5.992-2.471,9.961l0.044,0.319
		l-0.22,0.235c-5.102,5.437-11.213,11.336-17.122,17.04c-3.742,3.612-21.052,20.55-21.052,20.55s-0.702,3.757,0.982,5.642
		s3.284,2.893,5.619,2.324c2.336-0.568,39.036-37.981,39.256-38.198L57.846,51.224z M19.55,83.752l-2.835,1.768l-1.771-1.423
		l1.233-2.23l2.227-2.182l2.222-0.011l0.467,1.647L19.55,83.752z"/>
	<path style="fill:#232323;stroke:#FFFFFF;stroke-width:0.576;stroke-miterlimit:10;" d="M48.265,63.293l-7.181,7.294l15.717,14.898
		c0,0,2.704,2.212,5.647,2.212c0.833,0,1.507-0.223,2.063-0.681c0.761-0.566,1.148-1.271,1.296-2.161
		c0.341-2.055-2.982-6.953-2.982-6.953L48.265,63.293z"/>
</g>
</svg>
